<?xml version="1.0" standalone="no"?>
<!DOCTYPE svg PUBLIC "-//W3C//DTD SVG 20010904//EN"
        "http://www.w3.org/TR/2001/REC-SVG-20010904/DTD/svg10.dtd">
<svg xmlns="http://www.w3.org/2000/svg" width="512" height="512" viewBox="0 0 512 512" style="overflow: visible;"
     data-bbox="47.999999999999986 203.16414350701237 328.46152383661354 105.67171298597529">
    <rect x="0" y="0" width="512" height="512" fill="#24243e"></rect>
    <defs transform="matrix(0.9125334620475769, 0, 0, 0.9125334620475769, 22.756452560424805, 22.391441345214844)"
          data-uid="o_f8m0maffh_6">
        <linearGradient x1="25.78%" y1="93.71%" x2="74.22%" y2="6.29%" id="o_f8m0maffh_3"
                        gradientUnits="objectBoundingBox" data-uid="o_f8m0maffh_7">
            <stop offset="24%" stop-color="rgb(116, 235, 213)" stop-opacity="1.00" data-uid="o_f8m0maffh_8"></stop>
            <stop offset="100%" stop-color="rgb(172, 182, 229)" stop-opacity="1.00" data-uid="o_f8m0maffh_9"></stop>
        </linearGradient>
    </defs>
    <path class="st1" d="M1000 413.1c-175.8 0-318.3 142.5-318.3 318.3c0 175.8 142.5 318.3 318.3 318.3v131.8l225.1-225.1
			c57.6-57.6 93.2-137.2 93.2-225.1C1318.3 555.6 1175.8 413.1 1000 413.1z M1131.9 863.3l-54.6 54.6l-79.6 79.6v-79.6
			c-101.8-1.3-184.2-84.4-184.2-186.5c0-102.9 83.7-186.5 186.5-186.5c102.9 0 186.5 83.7 186.5 186.5
			C1186.5 781.2 1167.1 828.1 1131.9 863.3z" fill="url(#o_f8m0maffh_3)"
          transform="matrix(0.13752172887325287, 0, 0, 0.13752172887325287, -45.74857711791992, 146.35391235351562)"
          data-uid="o_f8m0maffh_10"></path>
    <path text="Quippr" fill="#c5f3f6" space="preserve" text-anchor="start" offset="0"
          font-size="48" font-family="Spartan"
          transform="matrix(1.3652291297912598, 0, 0, 1.3652291297912598, 150.21029663085938, 268.79296875)"
          font-weight="400" font-style="normal" letter-spacing="-3" data-fl-textpath="" data-uid="o_f8m0maffh_11"
          d="M 44.38-1.99L 42.77 1.3Q 40.82 0.53  38.82-0.52Q 36.82-1.56  34.8-2.88L 34.8-2.88Q 29.74 0.77  23.21 0.77L 23.21 0.77Q 18.98 0.77  15.35-0.78Q 11.71-2.33  9.01-5.11Q 6.31-7.9  4.8-11.62Q 3.29-15.34  3.29-19.66L 3.29-19.66Q 3.29-23.98  4.82-27.73Q 6.36-31.49  9.1-34.31Q 11.83-37.13  15.47-38.72Q 19.1-40.32  23.28-40.32L 23.28-40.32Q 27.46-40.32  31.08-38.74Q 34.7-37.15  37.43-34.33Q 40.15-31.51  41.69-27.78Q 43.22-24.05  43.22-19.75L 43.22-19.75Q 43.22-15.58  41.68-11.82Q 40.13-8.06  37.27-5.3L 37.27-5.3Q 39.14-4.25  40.92-3.41Q 42.7-2.57  44.38-1.99L 44.38-1.99ZM 23.18-2.76L 23.18-2.76Q 25.51-2.76  27.65-3.41Q 29.78-4.06  31.61-5.3L 31.61-5.3Q 29.64-6.74  27.84-8.39Q 26.04-10.03  24.48-11.78L 24.48-11.78L 26.11-13.7Q 29.66-10.08  33.94-7.2L 33.94-7.2Q 36.5-9.53  37.88-12.79Q 39.26-16.06  39.26-19.75L 39.26-19.75Q 39.26-23.35  38.05-26.46Q 36.84-29.57  34.67-31.88Q 32.5-34.2  29.58-35.5Q 26.66-36.79  23.28-36.79L 23.28-36.79Q 19.87-36.79  16.94-35.5Q 14.02-34.2  11.83-31.87Q 9.65-29.54  8.42-26.42Q 7.2-23.3  7.2-19.66L 7.2-19.66Q 7.2-16.03  8.4-12.94Q 9.6-9.84  11.76-7.56Q 13.92-5.28  16.84-4.02Q 19.75-2.76  23.18-2.76ZM 59.644 0.77L 59.644 0.77Q 54.044 0.77  51.644-1.75Q 49.244-4.27  49.244-10.18L 49.244-10.18L 49.244-24.58L 52.754-24.58L 52.754-10.8Q 52.754-6.14  54.334-4.16Q 55.924-2.18  59.644-2.18L 59.644-2.18Q 63.384-2.18  64.954-4.16Q 66.524-6.14  66.524-10.8L 66.524-10.8L 66.524-24.58L 70.034-24.58L 70.034-10.18Q 70.034-4.27  67.644-1.75Q 65.254 0.77  59.644 0.77ZM 80.4 0L 76.9 0L 76.9-24.58L 80.4-24.58L 80.4 0ZM 78.67-29.5L 78.67-29.5Q 78.02-29.5  77.51-29.81Q 76.99-30.12  76.68-30.65Q 76.37-31.18  76.37-31.8L 76.37-31.8Q 76.37-32.42  76.68-32.94Q 76.99-33.46  77.51-33.77Q 78.02-34.08  78.67-34.08L 78.67-34.08Q 79.3-34.08  79.8-33.77Q 80.3-33.46  80.63-32.95Q 80.95-32.45  80.95-31.8L 80.95-31.8Q 80.95-31.18  80.63-30.65Q 80.3-30.12  79.8-29.81Q 79.3-29.5  78.67-29.5ZM 91.268 12.48L 87.768 12.48L 87.768-24.58L 91.268-24.58L 91.268-19.49Q 92.758-22.25  95.438-23.8Q 98.108-25.34  101.378-25.34L 101.378-25.34Q 104.908-25.34  107.688-23.64Q 110.468-21.94  112.078-19Q 113.688-16.06  113.688-12.29L 113.688-12.29Q 113.688-8.57  112.088-5.6Q 110.498-2.64  107.728-0.94Q 104.948 0.77  101.428 0.77L 101.428 0.77Q 98.208 0.77  95.518-0.82Q 92.828-2.4  91.268-5.18L 91.268-5.18L 91.268 12.48ZM 100.608-2.28L 100.608-2.28Q 103.368-2.28  105.508-3.56Q 107.638-4.85  108.848-7.1Q 110.068-9.36  110.068-12.26L 110.068-12.26Q 110.068-15.19  108.838-17.46Q 107.618-19.73  105.488-21.01Q 103.368-22.3  100.608-22.3L 100.608-22.3Q 97.848-22.3  95.708-21.01Q 93.578-19.73  92.348-17.47Q 91.128-15.22  91.128-12.29L 91.128-12.29Q 91.128-9.38  92.348-7.12Q 93.578-4.85  95.728-3.56Q 97.868-2.28  100.608-2.28ZM 122.756 12.48L 119.256 12.48L 119.256-24.58L 122.756-24.58L 122.756-19.49Q 124.246-22.25  126.926-23.8Q 129.596-25.34  132.866-25.34L 132.866-25.34Q 136.396-25.34  139.176-23.64Q 141.956-21.94  143.566-19Q 145.176-16.06  145.176-12.29L 145.176-12.29Q 145.176-8.57  143.576-5.6Q 141.986-2.64  139.216-0.94Q 136.436 0.77  132.916 0.77L 132.916 0.77Q 129.696 0.77  127.006-0.82Q 124.316-2.4  122.756-5.18L 122.756-5.18L 122.756 12.48ZM 132.096-2.28L 132.096-2.28Q 134.856-2.28  136.996-3.56Q 139.126-4.85  140.336-7.1Q 141.556-9.36  141.556-12.26L 141.556-12.26Q 141.556-15.19  140.326-17.46Q 139.106-19.73  136.976-21.01Q 134.856-22.3  132.096-22.3L 132.096-22.3Q 129.336-22.3  127.196-21.01Q 125.066-19.73  123.836-17.47Q 122.616-15.22  122.616-12.29L 122.616-12.29Q 122.616-9.38  123.836-7.12Q 125.066-4.85  127.216-3.56Q 129.356-2.28  132.096-2.28ZM 154.244 0L 150.744 0L 150.744-24.58L 154.244-24.58L 154.244-20.95Q 155.424-23.11  157.284-24.23Q 159.144-25.34  161.594-25.34L 161.594-25.34Q 162.674-25.34  163.784-25.1Q 164.904-24.86  165.724-24.48L 165.724-24.48L 164.284-21.53Q 163.564-21.89  162.634-22.08Q 161.714-22.27  160.874-22.27L 160.874-22.27Q 159.164-22.27  157.654-21.41Q 156.144-20.54  155.194-19.16Q 154.244-17.78  154.244-16.22L 154.244-16.22L 154.244 0Z">
    </path>
</svg>